# xmcd CD database file
#
# Track frame offsets:
#	150
#	20750
#	40718
#	65356
#	84016
#	94344
#	124995
#	148555
#	179106
#	201563
#	220876
#	242432
#	273207
#	288029
#
# Disc length: 4057 seconds
#
# Revision: 1
# Processed by: cddbd v1.5.2PL0 Copyright (c) Steve Scherf et al.
# Submitted via: CDex 1.70beta2
#
DISCID=cc0fd70e
DTITLE=Tchavolo Schmitt - Seven Gypsy Nights
DYEAR=2007
DGENRE=Jazz
TTITLE0=Twelfth year
TTITLE1=It had to be you
TTITLE2=Dans la vie
TTITLE3=But not for me
TTITLE4=Julia at midnight
TTITLE5=Lyola bossa
TTITLE6=Swing 48
TTITLE7=Manoir de mes rêves
TTITLE8=Appel indirect
TTITLE9=Paul at midnight
TTITLE10=Undecided
TTITLE11=Summertime
TTITLE12=Mire pral
TTITLE13=Tchavolo's spleen
EXTD=YEAR: 2007
EXTT0=
EXTT1=
EXTT2=
EXTT3=
EXTT4=
EXTT5=
EXTT6=
EXTT7=
EXTT8=
EXTT9=
EXTT10=
EXTT11=
EXTT12=
EXTT13=
PLAYORDER=
